<?xml version="1.0" encoding="UTF-8" standalone="no"?>
<!-- Created with Inkscape (http://www.inkscape.org/) -->

<svg
   xmlns:dc="http://purl.org/dc/elements/1.1/"
   xmlns:cc="http://creativecommons.org/ns#"
   xmlns:rdf="http://www.w3.org/1999/02/22-rdf-syntax-ns#"
   xmlns:svg="http://www.w3.org/2000/svg"
   xmlns="http://www.w3.org/2000/svg"
   xmlns:sodipodi="http://sodipodi.sourceforge.net/DTD/sodipodi-0.dtd"
   xmlns:inkscape="http://www.inkscape.org/namespaces/inkscape"
   width="333.29205"
   height="185.59375"
   id="svg4579"
   version="1.1"
   inkscape:version="0.48.4 r9939"
   sodipodi:docname="dots.svg">
  <defs
     id="defs4581" />
  <sodipodi:namedview
     id="base"
     pagecolor="#ffffff"
     bordercolor="#666666"
     borderopacity="1.0"
     inkscape:pageopacity="0.0"
     inkscape:pageshadow="2"
     inkscape:zoom="1.979899"
     inkscape:cx="190.24583"
     inkscape:cy="92.07677"
     inkscape:document-units="px"
     inkscape:current-layer="layer1"
     showgrid="false"
     fit-margin-top="5"
     fit-margin-left="5"
     fit-margin-right="5"
     fit-margin-bottom="5"
     inkscape:window-width="1147"
     inkscape:window-height="717"
     inkscape:window-x="3052"
     inkscape:window-y="583"
     inkscape:window-maximized="0" />
  <metadata
     id="metadata4584">
    <rdf:RDF>
      <cc:Work
         rdf:about="">
        <dc:format>image/svg+xml</dc:format>
        <dc:type
           rdf:resource="http://purl.org/dc/dcmitype/StillImage" />
        <dc:title></dc:title>
      </cc:Work>
    </rdf:RDF>
  </metadata>
  <g
     inkscape:label="Layer 1"
     inkscape:groupmode="layer"
     id="layer1"
     transform="translate(-442.48363,-477.42525)">
    <g
       transform="translate(4542.6929,-1260.6685)"
       id="g4313">
      <g
         id="g4315">
        <path
           style="fill:none;stroke:#000000;stroke-width:5;stroke-miterlimit:10"
           inkscape:connector-curvature="0"
           stroke-miterlimit="10"
           d="m -4064.6,1873.5 c -3.2,0 -6.2,-2.7 -7.8,-5.5 l -19.1,-33.6 c -1.6,-2.8 -1.6,-6.5 0,-9.3 l 19.1,-32.7 c 1.6,-2.8 4.6,-4.2 7.8,-4.2 h 38.2 c 3.2,0 6.2,1.2 7.8,4 l 19.1,32.8 c 1.6,2.8 1.6,6.1 0,8.9 l -19.1,34 c -1.6,2.8 -4.6,5.5 -7.8,5.5 h -38.2 z"
           id="path4317" />
        <path
           style="fill:none;stroke:#000000;stroke-width:5;stroke-miterlimit:10"
           inkscape:connector-curvature="0"
           stroke-miterlimit="10"
           d="m -3989.2,1830.9 c -3.2,0 -6.2,-2.7 -7.8,-5.5 l -19.1,-33.6 c -1.6,-2.8 -1.6,-6.5 0,-9.3 l 19.1,-32.7 c 1.6,-2.8 4.6,-4.2 7.8,-4.2 h 38.2 c 3.2,0 6.2,1.2 7.8,4 l 19.1,32.8 c 1.6,2.8 1.6,6.1 0,8.9 l -19.1,34 c -1.6,2.8 -4.6,5.5 -7.8,5.5 h -38.2 z"
           id="path4319" />
        <path
           style="fill:none;stroke:#000000;stroke-width:5;stroke-miterlimit:10"
           inkscape:connector-curvature="0"
           stroke-miterlimit="10"
           d="m -3914.7,1873.5 c -3.2,0 -6.2,-2.7 -7.8,-5.5 l -19.1,-33.6 c -1.6,-2.8 -1.6,-6.5 0,-9.3 l 19.1,-32.7 c 1.6,-2.8 4.6,-4.2 7.8,-4.2 h 38.2 c 3.2,0 6.2,1.2 7.8,4 l 19.1,32.8 c 1.6,2.8 1.6,6.1 0,8.9 l -19.1,34 c -1.6,2.8 -4.6,5.5 -7.8,5.5 h -38.2 z"
           id="path4321" />
        <path
           style="fill:none;stroke:#000000;stroke-width:5;stroke-miterlimit:10"
           inkscape:connector-curvature="0"
           stroke-miterlimit="10"
           d="m -3840.7,1830.9 c -3.2,0 -6.2,-2.7 -7.8,-5.5 l -19.1,-33.6 c -1.6,-2.8 -1.6,-6.5 0,-9.3 l 19.1,-32.7 c 1.6,-2.8 4.6,-4.2 7.8,-4.2 h 38.2 c 3.2,0 6.2,1.2 7.8,4 l 19.1,32.8 c 1.6,2.8 1.6,6.1 0,8.9 l -19.1,34 c -1.6,2.8 -4.6,5.5 -7.8,5.5 h -38.2 z"
           id="path4323" />
        <path
           style="fill:none;stroke:#000000;stroke-width:5;stroke-miterlimit:10"
           inkscape:connector-curvature="0"
           stroke-miterlimit="10"
           d="m -3840.7,1916.2 c -3.2,0 -6.2,-2.7 -7.8,-5.5 l -19.1,-33.6 c -1.6,-2.8 -1.6,-6.5 0,-9.3 l 19.1,-32.7 c 1.6,-2.8 4.6,-4.2 7.8,-4.2 h 38.2 c 3.2,0 6.2,1.2 7.8,4 l 19.1,32.8 c 1.6,2.8 1.6,6.1 0,8.9 l -19.1,34 c -1.6,2.8 -4.6,5.5 -7.8,5.5 h -38.2 z"
           id="path4325" />
      </g>
      <text
         style="font-size:20px;font-family:Gotham-Book"
         transform="translate(-4071.6689,1840.9962)"
         font-size="20"
         id="text4327">Ruby</text>
      <text
         style="font-size:20px;font-family:Gotham-Book"
         transform="translate(-4005.1926,1793.9962)"
         font-size="20"
         id="text4329">Python</text>
      <text
         style="font-size:20px;font-family:Gotham-Book"
         transform="translate(-3932.6926,1837.4962)"
         font-size="20"
         id="text4331">Node.js</text>
      <text
         style="font-size:20px;font-family:Gotham-Book"
         transform="translate(-3837.1926,1796.4962)"
         font-size="20"
         id="text4333">Go</text>
      <text
         style="font-size:40px;font-family:Gotham-Medium"
         transform="translate(-3838.3298,1890.3296)"
         font-size="40"
         id="text4335">...</text>
    </g>
  </g>
</svg>
